<?xml version="1.0" encoding="UTF-8" standalone="no"?>
<svg
   viewBox="0 0 1024 1024"
   width="1024"
   height="1024"
   version="1.1"
   id="svg20"
   sodipodi:docname="it_hurts_when_ip_icon-resize.svg"
   inkscape:version="1.4.3 (0d15f75, 2025-12-25)"
   xmlns:inkscape="http://www.inkscape.org/namespaces/inkscape"
   xmlns:sodipodi="http://sodipodi.sourceforge.net/DTD/sodipodi-0.dtd"
   xmlns="http://www.w3.org/2000/svg"
   xmlns:svg="http://www.w3.org/2000/svg">
  <sodipodi:namedview
     id="namedview20"
     pagecolor="#ffffff"
     bordercolor="#000000"
     borderopacity="0.25"
     inkscape:showpageshadow="2"
     inkscape:pageopacity="0.0"
     inkscape:pagecheckerboard="0"
     inkscape:deskcolor="#d1d1d1"
     inkscape:zoom="0.70710678"
     inkscape:cx="946.10887"
     inkscape:cy="454.66966"
     inkscape:window-width="1920"
     inkscape:window-height="1080"
     inkscape:window-x="0"
     inkscape:window-y="0"
     inkscape:window-maximized="0"
     inkscape:current-layer="g20" />
  <defs
     id="defs12">
    <!-- Blue glow filter -->
    <filter
       id="blueGlow"
       x="-0.21862358"
       y="-0.21374934"
       width="1.4372472"
       height="1.4274987">
      <feGaussianBlur
         in="SourceGraphic"
         stdDeviation="8"
         result="blur1"
         id="feGaussianBlur1" />
      <feColorMatrix
         in="blur1"
         type="matrix"
         values="0 0 0 0 0.25  0 0 0 0 0.55  0 0 0 0 1  0 0 0 0.7 0"
         result="blueBlur1"
         id="feColorMatrix1" />
      <feGaussianBlur
         in="SourceGraphic"
         stdDeviation="18"
         result="blur2"
         id="feGaussianBlur2" />
      <feColorMatrix
         in="blur2"
         type="matrix"
         values="0 0 0 0 0.2  0 0 0 0 0.5  0 0 0 0 0.95  0 0 0 0.4 0"
         result="blueBlur2"
         id="feColorMatrix2" />
      <feGaussianBlur
         in="SourceGraphic"
         stdDeviation="35"
         result="blur3"
         id="feGaussianBlur3" />
      <feColorMatrix
         in="blur3"
         type="matrix"
         values="0 0 0 0 0.15  0 0 0 0 0.4  0 0 0 0 0.9  0 0 0 0.2 0"
         result="blueBlur3"
         id="feColorMatrix3" />
      <feMerge
         id="feMerge6">
        <feMergeNode
           in="blueBlur3"
           id="feMergeNode3" />
        <feMergeNode
           in="blueBlur2"
           id="feMergeNode4" />
        <feMergeNode
           in="blueBlur1"
           id="feMergeNode5" />
        <feMergeNode
           in="SourceGraphic"
           id="feMergeNode6" />
      </feMerge>
    </filter>
    <!-- Icon mask for rounded corners -->
    <clipPath
       id="iconClip">
      <rect
         x="100"
         y="100"
         width="824"
         height="824"
         rx="185"
         ry="185"
         id="rect6" />
    </clipPath>
    <!-- Background gradient -->
    <radialGradient
       id="bgGrad"
       cx="50%"
       cy="42%"
       r="70%"
       fx="50%"
       fy="38%">
      <stop
         offset="0%"
         stop-color="#2e3038"
         id="stop6" />
      <stop
         offset="100%"
         stop-color="#1a1c22"
         id="stop7" />
    </radialGradient>
    <!-- Blue gradient for the figure -->
    <linearGradient
       id="blueGrad"
       x1="20%"
       y1="0%"
       x2="80%"
       y2="100%">
      <stop
         offset="0%"
         stop-color="#5BB8FF"
         id="stop8" />
      <stop
         offset="45%"
         stop-color="#3B8EE6"
         id="stop9" />
      <stop
         offset="100%"
         stop-color="#2563B0"
         id="stop10" />
    </linearGradient>
    <!-- Cutout fill matches background -->
    <radialGradient
       id="cutoutGrad"
       cx="50%"
       cy="42%"
       r="70%"
       fx="50%"
       fy="38%">
      <stop
         offset="0%"
         stop-color="#2e3038"
         id="stop11" />
      <stop
         offset="100%"
         stop-color="#1a1c22"
         id="stop12" />
    </radialGradient>
  </defs>
  <g
     id="g20"
     clip-path="url(#iconClip)">
    <!-- Background -->
    <rect
       width="824"
       height="824"
       id="rect12"
       x="100"
       fill="url(#bgGrad)"
       y="100" />
    <!-- The IP figure group - scaled and centered with glow -->
    <g
       filter="url(#blueGlow)"
       transform="translate(148, 140) scale(0.72)"
       id="g19">
      <!-- Main body/figure path (the I with stream to P) -->
      <path
         d="M0 0 C9.41901597 6.42128213 15.34680316 16.71540034 17.5637207 27.82495117 C18.36117922 33.62850347 18.19036699 39.4634807 18.1875 45.3125 C18.1882251 45.99071808 18.1889502 46.66893616 18.18969727 47.3677063 C18.18882097 54.79072701 18.07357336 62.08238036 17 69.4375 C11.41833045 109.07136942 19.85352554 149.57584655 40 184 C40.36818848 184.63325195 40.73637695 185.26650391 41.11572266 185.91894531 C47.58370628 196.92792971 55.08996205 206.99384221 63 217 C63.72058594 217.92425781 64.44117188 218.84851563 65.18359375 219.80078125 C72.09634026 228.58183762 79.45676787 237.0192086 86.875 245.375 C96.72579618 256.57786624 96.72579618 256.57786624 97.375 262.3125 C97 266 97 266 94.625 268.875 C90.10140851 272.53695502 86.66731179 272.48551737 81 272 C72.98128315 270.33052944 68.0299018 266.41765232 62.80078125 260.33203125 C59.08857415 256.06347897 55.21629729 251.96765215 51.3125 247.875 C39.3379766 235.21120596 28.37923129 222.00070459 18 208 C17.48937012 207.31566895 16.97874023 206.63133789 16.45263672 205.92626953 C-0.0361673 183.70269021 -13.66838982 158.79966374 -21 132 C-21.21027832 131.24251465 -21.42055664 130.4850293 -21.63720703 129.70458984 C-28.29862214 104.3300308 -28.80430144 70.34690856 -19.3828125 45.64453125 C-18.14540984 42.38324119 -17.49784481 40.41465529 -18 37 C-19.95633975 34.58878141 -19.95633975 34.58878141 -23.625 34.875 C-24.73875 34.91625 -25.8525 34.9575 -27 35 C-27.97342719 38.37082361 -28.92571343 41.74730593 -29.875 45.125 C-30.14441406 46.05699219 -30.41382813 46.98898437 -30.69140625 47.94921875 C-34.39674362 61.23420883 -35.32944552 74.18449627 -35.26074219 87.89477539 C-35.25002854 90.43074523 -35.26069773 92.96600469 -35.2734375 95.50195312 C-35.28854764 109.86025813 -33.93476989 123.32338225 -29.6875 137.125 C-29.37337158 138.1655957 -29.05924316 139.20619141 -28.7355957 140.27832031 C-20.49848138 167.2085636 -6.83104265 191.51404786 10 214 C10.40573242 214.54462891 10.81146484 215.08925781 11.22949219 215.65039062 C20.02677688 227.41266024 29.52031564 238.51089944 39.5 249.28125 C41.62571478 251.59296482 43.70045051 253.93355862 45.75 256.3125 C51.60160802 263.08380263 51.60160802 263.08380263 58.5234375 268.67578125 C61.92402549 271.8671848 62.74874513 275.02761143 64 279.4375 C64.24927246 280.27804932 64.49854492 281.11859863 64.75537109 281.98461914 C65.53060093 284.64962571 66.27080848 287.32205636 67 290 C67.22719727 290.82242187 67.45439453 291.64484375 67.68847656 292.4921875 C69.34957846 298.61795943 70.73751857 304.78056219 72 311 C72.19899902 311.9576123 72.39799805 312.91522461 72.60302734 313.90185547 C80.18528532 352.06154037 77.31663921 392.72205623 69.33203125 430.5234375 C67.59196915 438.82180009 66.15179566 447.17221088 64.69970703 455.52490234 C63.72285211 461.10541993 62.66796697 466.64012919 61.40405273 472.16259766 C60.5420598 476.08245194 60.24119534 480.00064476 60 484 C59.90138672 485.61068359 59.90138672 485.61068359 59.80078125 487.25390625 C59.44044576 498.3746051 60.98233218 509.69015788 68.44921875 518.3984375 C78.36490112 528.63881475 92.10497422 532.92925537 106.171875 533.43359375 C108.69780841 533.45701562 111.22403907 533.45773853 113.75 533.4375 C114.40852966 533.43445862 115.06705933 533.43141724 115.74554443 533.42828369 C134.29238727 533.30167832 150.99447526 529.67457423 164.8125 516.41015625 C177.40696847 502.53375081 179.28566124 483.54744595 179.31884766 465.59057617 C179.32889328 464.32071365 179.3389389 463.05085114 179.34928894 461.74250793 C179.37626705 458.30538323 179.39164108 454.86829871 179.40471697 451.43109679 C179.42049068 447.82228922 179.44723436 444.21356211 179.4727478 440.60481262 C179.5192862 433.79124408 179.55614985 426.97765996 179.58942068 420.16401511 C179.62781981 412.39839411 179.6771825 404.63285443 179.72740483 396.8673023 C179.83035311 380.91159389 179.9197325 364.95583962 180 349 C183.39589579 352.27885709 185.86653534 355.69542493 188.25 359.75 C188.63986084 360.4097583 189.02972168 361.0695166 189.43139648 361.74926758 C206.56966752 391.14155862 216.68456651 423.47980511 222 457 C222.16371094 458.02802734 222.32742188 459.05605469 222.49609375 460.11523438 C224.39101999 472.49489713 225.26313693 484.72472878 225.3125 497.25 C225.31805908 498.4467334 225.32361816 499.6434668 225.3293457 500.87646484 C225.24890733 510.42044314 225.24890733 510.42044314 223 515 C213.24383647 523.2323814 198.98041804 526.49018849 187 530 C208.82739647 532.17123109 208.82739647 532.17123109 230.14794922 528.70410156 C233.46622279 527.884901 236.41043591 527.85442787 239.82421875 527.90625 C240.98397217 527.91978516 242.14372559 527.93332031 243.33862305 527.94726562 C244.21687744 527.96466797 245.09513184 527.98207031 246 528 C245.93941406 526.89076172 245.87882812 525.78152344 245.81640625 524.63867188 C245.59059795 520.49393107 245.36763909 516.34904092 245.14550781 512.20410156 C245.04927109 510.41564859 244.95227823 508.62723612 244.85449219 506.83886719 C244.71346828 504.25726631 244.57523151 501.67552838 244.4375 499.09375 C244.39375244 498.30383667 244.35000488 497.51392334 244.30493164 496.70007324 C243.56887503 482.72610521 243.56887503 482.72610521 245.1875 480 C247.66525842 478.63296087 249.21155919 478.58173388 252 479 C254.78468363 480.98905974 255.3698087 482.72515973 256 486 C256.2350561 488.58851905 256.42323057 491.15621415 256.5625 493.75 C256.6049585 494.51554199 256.64741699 495.28108398 256.69116211 496.06982422 C257.21377176 506.70498316 257.08809344 517.35560201 257 528 C257.79921875 527.98839844 258.5984375 527.97679687 259.421875 527.96484375 C264.79737749 527.92067882 270.08772695 527.94549798 275.4375 528.5 C289.6136429 529.79900911 304.0004732 529.67567748 318 527 C315.47121867 523.20682801 312.97037727 522.8091709 308.796875 521.66015625 C308.08146545 521.45192734 307.36605591 521.24369843 306.62896729 521.02915955 C304.33886927 520.36303507 302.04509118 519.71119639 299.75 519.0625 C296.74119478 518.21116152 293.7368808 517.34591718 290.734375 516.47265625 C290.0497821 516.28397476 289.36518921 516.09529327 288.65985107 515.90089417 C283.36569494 514.36050986 279.19696476 512.03870882 275.15625 508.2890625 C273.38367086 504.77983488 273.55188642 501.22444235 273.5 497.375 C273.23393389 488.9461519 272.53167441 480.62694501 271.5625 472.25 C271.44003906 471.15606934 271.31757812 470.06213867 271.19140625 468.93505859 C270.59264569 463.87444036 269.85436415 459.01325389 268.51245117 454.09863281 C267.8802509 451.5095935 267.46562754 448.91316429 267.046875 446.28125 C266.02746392 439.95852137 264.69664863 433.73754721 263.25 427.5 C262.98977051 426.37722656 262.72954102 425.25445313 262.46142578 424.09765625 C259.44593323 411.33297667 256.15672523 398.47559932 250.98046875 386.390625 C249.76539151 383.42796654 248.77378962 380.40895462 247.75 377.375 C244.84768565 369.21334025 241.06161547 361.64010195 237 354 C236.35272949 352.77941895 236.35272949 352.77941895 235.69238281 351.53417969 C230.26940932 341.36369203 224.74770436 331.36566616 218 322 C217.56606934 321.39768555 217.13213867 320.79537109 216.68505859 320.17480469 C200.63709771 296.66232817 200.63709771 296.66232817 179 279 C178.93132026 245.37675271 178.8784643 211.75352288 178.84680401 178.13022101 C178.84305193 174.15989332 178.83916896 170.18956577 178.83520508 166.21923828 C178.83441815 165.42882385 178.83363122 164.63840942 178.83282044 163.82404304 C178.81976964 151.02893695 178.79611759 138.23387133 178.76854161 125.43878925 C178.74047834 112.30800905 178.72382179 99.17725004 178.71773452 86.04644108 C178.71361998 77.94525748 178.70062864 69.84418829 178.6762506 61.74303991 C178.65850504 55.5290862 178.65663672 49.31521956 178.66067696 43.10124397 C178.65985132 40.55353148 178.65387997 38.00581467 178.64238358 35.45812798 C178.62745532 31.979413 178.63104809 28.50118727 178.63923645 25.02246094 C178.63049793 24.01466237 178.6217594 23.0068638 178.61275607 21.96852589 C178.65924877 14.65948727 179.55713491 8.88132806 184.4375 3.125 C187.9360811 0.22373763 190.52292524 -1.24880923 195.09688473 -1.25447559 C196.31512665 -1.26322388 196.31512665 -1.26322388 197.55797952 -1.27214891 C198.44481048 -1.26836958 199.33164144 -1.26459026 200.24534607 -1.26069641 C201.66535804 -1.26643473 201.66535804 -1.26643473 203.11405712 -1.27228898 C206.29541378 -1.2826304 209.47659032 -1.27862431 212.65795898 -1.2746582 C214.93659126 -1.27900473 217.21522208 -1.28418768 219.49385071 -1.29014587 C225.69785889 -1.30357129 231.90180626 -1.30410931 238.10582614 -1.30158257 C243.30011962 -1.30051264 248.49440082 -1.30539816 253.68869168 -1.310188 C266.67502508 -1.32193694 279.66131988 -1.32105183 292.64765496 -1.31463119 C303.86020072 -1.30949219 315.0726588 -1.32063482 326.28518724 -1.33972941 C337.83758014 -1.35924881 349.38992817 -1.36704853 360.94233757 -1.36360615 C367.41153994 -1.36180754 373.88066252 -1.36428295 380.34985161 -1.37832069 C446.86351018 -1.51021933 446.86351018 -1.51021933 473.5 6.125 C474.20471436 6.31941681 474.90942871 6.51383362 475.63549805 6.71414185 C487.89574895 10.09818912 499.64002383 14.24207245 511 20 C512.19713623 20.60545654 512.19713623 20.60545654 513.41845703 21.22314453 C546.39137422 38.18348525 570.5884008 64.57959605 582.8125 99.6875 C585.02642586 106.70074166 586.68161238 113.76791991 588 121 C588.17136475 121.85279541 588.34272949 122.70559082 588.51928711 123.58422852 C590.03041154 131.62324982 590.26859718 139.39729468 590.1875 147.5625 C590.18685547 148.79935547 590.18621094 150.03621094 590.18554688 151.31054688 C590.01438087 187.2744261 577.70777306 220.28596106 552.875 246.5625 C535.14328619 263.44835467 514.16546862 274.48563365 491 282 C490.01781494 282.32548828 489.03562988 282.65097656 488.02368164 282.98632812 C480.2370573 285.48931841 472.49234348 287.23607634 464.4375 288.625 C463.32826172 288.82867188 462.21902344 289.03234375 461.07617188 289.2421875 C442.99462996 292.43124407 425.07891701 293.28493415 406.73888969 293.27439499 C402.96620843 293.27341346 399.19379961 293.28655629 395.42115784 293.30337524 C384.71136459 293.34919386 374.00162968 293.37435968 363.29174805 293.38085938 C356.7003806 293.38502763 350.10927314 293.41016114 343.51799202 293.44618607 C341.02349686 293.45594173 338.52896099 293.45833932 336.03445244 293.45301437 C332.54925877 293.445913 329.06494458 293.46328389 325.57983398 293.48583984 C324.56611725 293.47766739 323.55240051 293.46949493 322.50796509 293.46107483 C315.00151642 293.54705966 306.89719045 294.63108902 301.02252865 299.70941734 C294.63748503 306.69438799 292.88971049 313.87357188 292.83937073 323.12623596 C292.83428291 323.83257941 292.82919509 324.53892285 292.82395309 325.26667064 C292.80828811 327.62772976 292.7997193 329.98875839 292.79125977 332.34985352 C292.78171638 334.04538667 292.77182501 335.74091789 292.76161194 337.43644714 C292.7302793 343.00057682 292.70996429 348.56472119 292.69140625 354.12890625 C292.68646027 355.55104876 292.68646027 355.55104876 292.68141437 357.00192142 C292.65063324 365.95102037 292.6239386 374.90012281 292.60699558 383.84925938 C292.58510556 395.27534535 292.54316025 406.70096049 292.47355801 418.12685829 C292.4262229 426.17208796 292.40204929 434.21719103 292.3947987 442.26255554 C292.38985647 447.06192321 292.37491223 451.86075965 292.3350544 456.65997505 C292.29800656 461.18032689 292.28983733 465.69984807 292.30306053 470.22032356 C292.30300688 471.87141759 292.29283319 473.52255015 292.2713089 475.17350388 C292.1473011 485.22982374 293.04913958 493.45407701 299 502 C301.68587516 504.47695237 301.68587516 504.47695237 304.75 505.5625 C305.79929687 506.00851562 306.84859375 506.45453125 307.9296875 506.9140625 C311.34953935 508.12362842 314.78468259 509.13837071 318.28125 510.09765625 C321.77819354 511.25827975 325.06779811 512.76591744 328.375 514.375 C329.53773438 514.93960938 330.70046875 515.50421875 331.8984375 516.0859375 C335.13704205 518.08457255 336.93504064 519.82275576 339 523 C339.60081245 527.13058559 339.30776608 529.35882067 337.5 533.125 C329.1967534 542.67373359 315.74613673 545.58222652 303.6875 547.54296875 C302.91358917 547.66976517 302.13967834 547.79656158 301.34231567 547.92720032 C292.55782599 549.30721314 283.73970041 550.04943315 274.875 550.6875 C274.02427917 550.75037201 273.17355835 550.81324402 272.29705811 550.87802124 C244.5386475 552.90857865 216.37720738 552.63954129 188.75 548.875 C182.54006834 548.06584655 176.44151457 547.78645046 170.1875 547.75 C168.93308105 547.73622314 168.93308105 547.73622314 167.65332031 547.72216797 C162.08426473 547.74952089 156.86868469 548.48791436 151.39477539 549.46972656 C144.5184169 550.54383305 137.56046952 550.96491489 130.625 551.5 C128.37951562 551.67739082 126.13416094 551.85630019 123.8888855 552.03631592 C122.34439045 552.15950295 120.79972636 552.28058612 119.25491333 552.39971924 C115.19425402 552.71813514 111.14568947 553.08218174 107.09716797 553.53027344 C91.81613697 555.17717094 76.59008363 555.30930542 61.24072266 555.26074219 C57.59927392 555.24932699 53.95811693 555.25613666 50.31667805 555.26762676 C-14.49574871 555.44100731 -14.49574871 555.44100731 -32 541 C-38.22503771 534.70501805 -39.40363817 529.25619209 -39.36572266 520.55957031 C-39.17523132 512.72670646 -37.21802494 505.46262424 -35 498 C-34.55905796 496.45206135 -34.11898353 494.90387534 -33.6796875 493.35546875 C-31.37540015 485.36593447 -28.85102922 477.49343459 -26.02929688 469.67138672 C-19.3000717 450.98086803 -15.14339317 431.74903289 -11.43896484 412.26098633 C-11.13311228 410.68562448 -10.81475928 409.11265995 -10.48681641 407.54174805 C-4.4916137 378.74306539 -4.63577502 345.87494728 -10 317 C-10.24943359 315.64914307 -10.24943359 315.64914307 -10.50390625 314.27099609 C-13.04628215 301.1189089 -17.27493275 289.09222603 -23 277 C-23.70576172 275.48212891 -23.70576172 275.48212891 -24.42578125 273.93359375 C-27.24516494 268.35304374 -30.80496735 263.59888388 -34.625 258.6875 C-55.79547328 231.27602015 -67.17244401 196.69119671 -74.4375 163.25 C-74.67235107 162.16968506 -74.90720215 161.08937012 -75.14916992 159.97631836 C-78.59424839 143.20244683 -79.43816875 126.70893955 -79.4375 109.625 C-79.43923218 108.56917725 -79.44096436 107.51335449 -79.44274902 106.42553711 C-79.43069694 89.67060713 -78.14972807 74.2756768 -74 58 C-73.64515085 56.41927963 -73.29580911 54.83730841 -72.953125 53.25390625 C-68.54611592 33.44139007 -59.00054792 13.30009628 -41.7578125 1.6953125 C-29.90122991 -5.59329493 -12.33237491 -7.85635226 0 0 Z"
         fill="url(#blueGrad)"
         transform="translate(268,298)"
         id="path12" />
      <!-- White cutout inside P (matches background) -->
      <path
         d="M0 0 C21.305625 -0.061875 42.61125 -0.12375 64.5625 -0.1875 C71.26506104 -0.21481201 77.96762207 -0.24212402 84.87329102 -0.27026367 C93.12097168 -0.28381348 93.12097168 -0.28381348 96.99424744 -0.28633118 C99.67293012 -0.29090814 102.35117324 -0.30024617 105.0297699 -0.31672668 C128.46288392 -0.45443964 150.39059522 -0.34609879 169 16 C182.74783933 29.89962935 187.5048244 46.94974384 187.42626953 66.04199219 C186.97455086 83.34437481 181.16447367 100.29653834 168.625 112.5625 C147.448058 130.88376345 120.13036255 131.45671518 93.65234375 131.29296875 C91.24711313 131.28854765 88.8418796 131.28549344 86.43664551 131.28381348 C77.60355246 131.26820358 68.77052154 131.22632018 59.9375 131.1875 C40.158125 131.125625 20.37875 131.06375 0 131 C0 87.77 0 44.54 0 0 Z"
         fill="url(#cutoutGrad)"
         transform="translate(560,378)"
         id="path13" />
      <!-- Head circle -->
      <path
         d="M0 0 C1.11955078 0.83337891 1.11955078 0.83337891 2.26171875 1.68359375 C2.85339844 2.10511719 3.44507813 2.52664062 4.0546875 2.9609375 C8.30416929 6.20540046 11.26318374 10.32356176 14.26171875 14.68359375 C14.71804688 15.33585937 15.174375 15.988125 15.64453125 16.66015625 C23.05504641 27.79811617 25.18679502 41.7305736 22.87939453 54.85888672 C19.22723179 71.26625519 10.96337421 84.10322743 -3.17578125 93.49609375 C-17.22613622 101.97747049 -33.3457428 104.07376888 -49.46484375 100.96484375 C-52.34442232 100.04218809 -55.0101516 98.9835176 -57.73828125 97.68359375 C-58.51945312 97.33296875 -59.300625 96.98234375 -60.10546875 96.62109375 C-73.85347175 89.77087772 -83.76949284 77.59452995 -88.9375 63.38671875 C-91.48854258 55.33079482 -92.4113301 48.10204606 -91.73828125 39.68359375 C-91.63193359 38.31460938 -91.63193359 38.31460938 -91.5234375 36.91796875 C-89.85560238 24.09999995 -82.84222447 13.50967874 -73.73828125 4.68359375 C-73.17496094 4.11125 -72.61164063 3.53890625 -72.03125 2.94921875 C-52.56203207 -15.4304809 -21.09832271 -14.66475345 0 0 Z"
         fill="url(#blueGrad)"
         transform="translate(320.73828125,179.31640625)"
         id="path14" />
      <!-- Stream detail paths -->
      <path
         d="M0 0 C3.5 1.125 3.5 1.125 5.08203125 4.09765625 C6.78111597 8.51414757 7.75311253 13.05919162 8.6875 17.6875 C8.86474609 18.51185547 9.04199219 19.33621094 9.22460938 20.18554688 C11.54346554 31.38589076 11.54346554 31.38589076 9.375 35 C6.61909116 36.65354531 4.64924548 36.51865568 1.5 36.125 C-1.68470169 33.78880736 -2.15465711 31.31656146 -2.88671875 27.5390625 C-3.10263672 26.44335938 -3.31855469 25.34765625 -3.54101562 24.21875 C-3.75435547 23.0740625 -3.96769531 21.929375 -4.1875 20.75 C-4.41244141 19.61304688 -4.63738281 18.47609375 -4.86914062 17.3046875 C-7.32558983 4.58192323 -7.32558983 4.58192323 -5.4375 1.25 C-3.5 0.125 -3.5 0.125 0 0 Z"
         fill="url(#blueGrad)"
         transform="translate(509.5,723.875)"
         id="path15" />
      <path
         d="M0 0 C7.10653613 0.13697405 12.58896375 2.81636919 18.875 5.9375 C19.82375 6.39318359 20.7725 6.84886719 21.75 7.31835938 C28.69864988 10.69864988 28.69864988 10.69864988 31 13 C30.8125 16.5 30.8125 16.5 30 20 C27 22 27 22 24.87109375 21.8671875 C20.7734301 20.62952583 16.95371557 18.8974884 13.0625 17.125 C12.27681641 16.77308594 11.49113281 16.42117188 10.68164062 16.05859375 C-1.36484494 10.63515506 -1.36484494 10.63515506 -3 9 C-2.4 2.4 -2.4 2.4 0 0 Z"
         fill="url(#blueGrad)"
         transform="translate(384,563)"
         id="path16" />
      <path
         d="M0 0 C3.01126517 2.10803851 5.53568105 4.65107319 8.125 7.25 C8.82753906 7.93191406 9.53007812 8.61382813 10.25390625 9.31640625 C11.60057724 10.62743755 12.93917336 11.94683074 14.26831055 13.27563477 C15.64051297 14.64203343 17.04699916 15.97399129 18.46484375 17.29296875 C20 19 20 19 20.4375 22.0625 C20 25 20 25 18.8125 26.875 C16.30418801 28.4318833 14.92370072 28.38671042 12 28 C9.60546875 26.05859375 9.60546875 26.05859375 7.1875 23.4375 C3.50415388 19.55624274 -0.23276886 15.93583105 -4.30859375 12.47265625 C-8.93305884 8.44627441 -8.93305884 8.44627441 -9.375 5.5 C-9 3 -9 3 -7.875 1.1875 C-4.95710057 -0.66050297 -3.43418208 -0.53411818 0 0 Z"
         fill="url(#blueGrad)"
         transform="translate(436,589)"
         id="path17" />
      <path
         d="M0 0 C3.76185704 4.69293543 5.71538408 9.88515864 7.75 15.5 C8.06582031 16.32886719 8.38164062 17.15773438 8.70703125 18.01171875 C10.34063508 22.45993004 11.52144114 26.18784322 11 31 C9.875 32.875 9.875 32.875 8 34 C4.8125 34.1875 4.8125 34.1875 2 34 C-0.62254685 28.35143756 -2.97236308 22.6304094 -5.1875 16.8125 C-5.44934082 16.13574219 -5.71118164 15.45898438 -5.98095703 14.76171875 C-7.44754569 10.86355475 -8.59265318 7.15370322 -9 3 C-6.90078294 -0.7045007 -3.94514513 -0.72461849 0 0 Z"
         fill="url(#blueGrad)"
         transform="translate(496,674)"
         id="path18" />
      <path
         d="M0 0 C5.48776509 1.15066042 6.87051916 4.04204561 9.875 8.58984375 C10.535 9.65332031 11.195 10.71679688 11.875 11.8125 C12.8959375 13.39224609 12.8959375 13.39224609 13.9375 15.00390625 C19.52950065 24.01198795 19.52950065 24.01198795 18.875 29.8125 C16.875 31.8125 16.875 31.8125 13.60546875 32.48046875 C9.875 31.8125 9.875 31.8125 8.33837891 30.19775391 C6.82368698 27.89561066 5.48906075 25.55395582 4.1875 23.125 C3.2698962 21.49441933 2.34939071 19.86546767 1.42578125 18.23828125 C0.99555664 17.46669678 0.56533203 16.6951123 0.12207031 15.90014648 C-1.18732595 13.60041523 -1.18732595 13.60041523 -3.43359375 10.9296875 C-5.125 8.8125 -5.125 8.8125 -5.5 5.625 C-4.95898752 1.56740642 -3.90835566 1.01617247 0 0 Z"
         fill="url(#blueGrad)"
         transform="translate(467.125,627.1875)"
         id="path19" />
    </g>
    <!-- Subtle border highlight -->
    <rect
       x="104"
       y="104"
       width="816"
       height="816"
       rx="181"
       ry="181"
       fill="none"
       stroke="url(#blueGrad)"
       stroke-width="1.5"
       opacity="0.2"
       id="rect19" />
  </g>
</svg>
